HIERARCHY
ROOT Hips
{
	OFFSET -412.092468 -576.953125 89.101967
	CHANNELS 6 Xposition Yposition Zposition Zrotation Yrotation Xrotation
	JOINT Spine
	{
		OFFSET 0.000000 2.080078 8.814247
		CHANNELS 6 Xposition Yposition Zposition Zrotation Yrotation Xrotation
		JOINT Spine1
		{
			OFFSET 0.000000 0.000000 8.844139
			CHANNELS 6 Xposition Yposition Zposition Zrotation Yrotation Xrotation
			JOINT Spine2
			{
				OFFSET 0.000000 0.000000 11.682266
				CHANNELS 6 Xposition Yposition Zposition Zrotation Yrotation Xrotation
				JOINT Spine3
				{
					OFFSET 0.000000 0.000000 11.746696
					CHANNELS 6 Xposition Yposition Zposition Zrotation Yrotation Xrotation
					JOINT Neck
					{
						OFFSET 0.000000 0.000000 17.658264
						CHANNELS 6 Xposition Yposition Zposition Zrotation Yrotation Xrotation
						JOINT Neck1
						{
							OFFSET 0.000000 0.000000 5.101517
							CHANNELS 6 Xposition Yposition Zposition Zrotation Yrotation Xrotation
							JOINT Head
							{
								OFFSET 0.000000 0.000000 5.101517
								CHANNELS 6 Xposition Yposition Zposition Zrotation Yrotation Xrotation
								JOINT HeadEnd
								{
									OFFSET 0.000000 0.000000 11.655090
									CHANNELS 6 Xposition Yposition Zposition Zrotation Yrotation Xrotation
									End Site
									{
										OFFSET 0.000000 0.000000 0.100006
									}
								}
							}
						}
					}
					JOINT RightShoulder
					{
						OFFSET -2.625397 0.000000 11.175217
						CHANNELS 6 Xposition Yposition Zposition Zrotation Yrotation Xrotation
						JOINT RightArm
						{
							OFFSET 0.000000 0.000000 10.434708
							CHANNELS 6 Xposition Yposition Zposition Zrotation Yrotation Xrotation
							JOINT RightForeArm
							{
								OFFSET 0.000000 0.000000 29.628418
								CHANNELS 6 Xposition Yposition Zposition Zrotation Yrotation Xrotation
								JOINT RightHand
								{
									OFFSET 0.000000 0.000000 22.857605
									CHANNELS 6 Xposition Yposition Zposition Zrotation Yrotation Xrotation
									JOINT RightHandThumb1
									{
										OFFSET -2.867310 -2.944275 3.959564
										CHANNELS 6 Xposition Yposition Zposition Zrotation Yrotation Xrotation
										JOINT RightHandThumb2
										{
											OFFSET 0.000000 0.000000 3.350403
											CHANNELS 6 Xposition Yposition Zposition Zrotation Yrotation Xrotation
											JOINT RightHandThumb3
											{
												OFFSET 0.000000 0.000000 3.756516
												CHANNELS 6 Xposition Yposition Zposition Zrotation Yrotation Xrotation
												JOINT RightHandThumb4
												{
													OFFSET 0.000000 0.000000 3.147339
													CHANNELS 6 Xposition Yposition Zposition Zrotation Yrotation Xrotation
													End Site
													{
														OFFSET 0.000000 0.000000 0.100006
													}
												}
											}
										}
									}
									JOINT RightHandIndex1
									{
										OFFSET -0.086761 -2.345276 10.030899
										CHANNELS 6 Xposition Yposition Zposition Zrotation Yrotation Xrotation
										JOINT RightHandIndex2
										{
											OFFSET 0.000000 0.000000 4.061096
											CHANNELS 6 Xposition Yposition Zposition Zrotation Yrotation Xrotation
											JOINT RightHandIndex3
											{
												OFFSET 0.000000 0.000000 3.248871
												CHANNELS 6 Xposition Yposition Zposition Zrotation Yrotation Xrotation
												JOINT RightHandIndex4
												{
													OFFSET 0.000000 0.000000 2.639709
													CHANNELS 6 Xposition Yposition Zposition Zrotation Yrotation Xrotation
													End Site
													{
														OFFSET 0.000000 0.000000 0.100006
													}
												}
											}
										}
									}
									JOINT RightHandMiddle1
									{
										OFFSET 0.104095 -0.006775 9.502945
										CHANNELS 6 Xposition Yposition Zposition Zrotation Yrotation Xrotation
										JOINT RightHandMiddle2
										{
											OFFSET 0.000000 0.000000 4.568726
											CHANNELS 6 Xposition Yposition Zposition Zrotation Yrotation Xrotation
											JOINT RightHandMiddle3
											{
												OFFSET 0.000000 0.000000 3.654984
												CHANNELS 6 Xposition Yposition Zposition Zrotation Yrotation Xrotation
												JOINT RightHandMiddle4
												{
													OFFSET 0.000000 0.000000 2.741241
													CHANNELS 6 Xposition Yposition Zposition Zrotation Yrotation Xrotation
													End Site
													{
														OFFSET 0.000000 0.000000 0.100006
													}
												}
											}
										}
									}
									JOINT RightHandRing1
									{
										OFFSET 0.086761 2.267456 8.921707
										CHANNELS 6 Xposition Yposition Zposition Zrotation Yrotation Xrotation
										JOINT RightHandRing2
										{
											OFFSET 0.000000 0.000000 4.061096
											CHANNELS 6 Xposition Yposition Zposition Zrotation Yrotation Xrotation
											JOINT RightHandRing3
											{
												OFFSET 0.000000 0.000000 3.654984
												CHANNELS 6 Xposition Yposition Zposition Zrotation Yrotation Xrotation
												JOINT RightHandRing4
												{
													OFFSET 0.000000 0.000000 2.741241
													CHANNELS 6 Xposition Yposition Zposition Zrotation Yrotation Xrotation
													End Site
													{
														OFFSET 0.000000 0.000000 0.100006
													}
												}
											}
										}
									}
									JOINT RightHandPinky1
									{
										OFFSET -0.173492 4.467224 7.976990
										CHANNELS 6 Xposition Yposition Zposition Zrotation Yrotation Xrotation
										JOINT RightHandPinky2
										{
											OFFSET 0.000000 0.000000 3.350403
											CHANNELS 6 Xposition Yposition Zposition Zrotation Yrotation Xrotation
											JOINT RightHandPinky3
											{
												OFFSET 0.000000 0.000000 2.842758
												CHANNELS 6 Xposition Yposition Zposition Zrotation Yrotation Xrotation
												JOINT RightHandPinky4
												{
													OFFSET 0.000000 0.000000 2.639709
													CHANNELS 6 Xposition Yposition Zposition Zrotation Yrotation Xrotation
													End Site
													{
														OFFSET 0.000000 0.000000 0.100006
													}
												}
											}
										}
									}
									JOINT RightForeArmEnd
									{
										OFFSET 0.000000 0.000000 0.000000
										CHANNELS 6 Xposition Yposition Zposition Zrotation Yrotation Xrotation
										End Site
										{
											OFFSET 0.000000 0.000000 0.100006
										}
									}
								}
								JOINT RightArmEnd
								{
									OFFSET 0.000000 0.000000 0.000000
									CHANNELS 6 Xposition Yposition Zposition Zrotation Yrotation Xrotation
									End Site
									{
										OFFSET 0.000000 0.000000 0.100006
									}
								}
							}
						}
					}
					JOINT LeftShoulder
					{
						OFFSET 2.625397 0.000000 11.175217
						CHANNELS 6 Xposition Yposition Zposition Zrotation Yrotation Xrotation
						JOINT LeftArm
						{
							OFFSET 0.000000 0.000000 10.813629
							CHANNELS 6 Xposition Yposition Zposition Zrotation Yrotation Xrotation
							JOINT LeftForeArm
							{
								OFFSET 0.000000 0.000000 28.724777
								CHANNELS 6 Xposition Yposition Zposition Zrotation Yrotation Xrotation
								JOINT LeftHand
								{
									OFFSET 0.644379 0.328857 25.716171
									CHANNELS 6 Xposition Yposition Zposition Zrotation Yrotation Xrotation
									JOINT LeftHandThumb1
									{
										OFFSET 2.867310 -2.944275 3.959564
										CHANNELS 6 Xposition Yposition Zposition Zrotation Yrotation Xrotation
										JOINT LeftHandThumb2
										{
											OFFSET 0.000000 0.000000 3.350403
											CHANNELS 6 Xposition Yposition Zposition Zrotation Yrotation Xrotation
											JOINT LeftHandThumb3
											{
												OFFSET 0.000000 0.000000 3.756516
												CHANNELS 6 Xposition Yposition Zposition Zrotation Yrotation Xrotation
												JOINT LeftHandThumb4
												{
													OFFSET 0.000000 0.000000 3.100006
													CHANNELS 6 Xposition Yposition Zposition Zrotation Yrotation Xrotation
													End Site
													{
														OFFSET 0.000000 0.000000 0.100006
													}
												}
											}
										}
									}
									JOINT LeftHandIndex1
									{
										OFFSET 0.086761 -2.345276 10.030899
										CHANNELS 6 Xposition Yposition Zposition Zrotation Yrotation Xrotation
										JOINT LeftHandIndex2
										{
											OFFSET 0.000000 0.000000 4.061096
											CHANNELS 6 Xposition Yposition Zposition Zrotation Yrotation Xrotation
											JOINT LeftHandIndex3
											{
												OFFSET 0.000000 0.000000 3.248871
												CHANNELS 6 Xposition Yposition Zposition Zrotation Yrotation Xrotation
												JOINT LeftHandIndex4
												{
													OFFSET 0.000000 0.000000 2.639709
													CHANNELS 6 Xposition Yposition Zposition Zrotation Yrotation Xrotation
													End Site
													{
														OFFSET 0.000000 0.000000 0.100006
													}
												}
											}
										}
									}
									JOINT LeftHandMiddle1
									{
										OFFSET -0.104095 -0.006775 9.502945
										CHANNELS 6 Xposition Yposition Zposition Zrotation Yrotation Xrotation
										JOINT LeftHandMiddle2
										{
											OFFSET 0.000000 0.000000 4.568726
											CHANNELS 6 Xposition Yposition Zposition Zrotation Yrotation Xrotation
											JOINT LeftHandMiddle3
											{
												OFFSET 0.000000 0.000000 3.654984
												CHANNELS 6 Xposition Yposition Zposition Zrotation Yrotation Xrotation
												JOINT LeftHandMiddle4
												{
													OFFSET 0.000000 0.000000 2.741241
													CHANNELS 6 Xposition Yposition Zposition Zrotation Yrotation Xrotation
													End Site
													{
														OFFSET 0.000000 0.000000 0.100006
													}
												}
											}
										}
									}
									JOINT LeftHandRing1
									{
										OFFSET -0.086761 2.267456 8.921707
										CHANNELS 6 Xposition Yposition Zposition Zrotation Yrotation Xrotation
										JOINT LeftHandRing2
										{
											OFFSET 0.000000 0.000000 4.061096
											CHANNELS 6 Xposition Yposition Zposition Zrotation Yrotation Xrotation
											JOINT LeftHandRing3
											{
												OFFSET 0.000000 0.000000 3.654984
												CHANNELS 6 Xposition Yposition Zposition Zrotation Yrotation Xrotation
												JOINT LeftHandRing4
												{
													OFFSET 0.000000 0.000000 2.741241
													CHANNELS 6 Xposition Yposition Zposition Zrotation Yrotation Xrotation
													End Site
													{
														OFFSET 0.000000 0.000000 0.100006
													}
												}
											}
										}
									}
									JOINT LeftHandPinky1
									{
										OFFSET 0.173492 4.467224 7.976990
										CHANNELS 6 Xposition Yposition Zposition Zrotation Yrotation Xrotation
										JOINT LeftHandPinky2
										{
											OFFSET 0.000000 0.000000 3.350403
											CHANNELS 6 Xposition Yposition Zposition Zrotation Yrotation Xrotation
											JOINT LeftHandPinky3
											{
												OFFSET 0.000000 0.000000 2.842758
												CHANNELS 6 Xposition Yposition Zposition Zrotation Yrotation Xrotation
												JOINT LeftHandPinky4
												{
													OFFSET 0.000000 0.000000 2.639709
													CHANNELS 6 Xposition Yposition Zposition Zrotation Yrotation Xrotation
													End Site
													{
														OFFSET 0.000000 0.000000 0.100006
													}
												}
											}
										}
									}
									JOINT LeftForeArmEnd
									{
										OFFSET 0.000000 0.000000 0.000000
										CHANNELS 6 Xposition Yposition Zposition Zrotation Yrotation Xrotation
										End Site
										{
											OFFSET 0.000000 0.000000 0.100006
										}
									}
								}
								JOINT LeftArmEnd
								{
									OFFSET 0.000000 0.000000 0.000000
									CHANNELS 6 Xposition Yposition Zposition Zrotation Yrotation Xrotation
									End Site
									{
										OFFSET 0.000000 0.000000 0.100006
									}
								}
							}
						}
					}
				}
			}
		}
	}
	JOINT RightUpLeg
	{
		OFFSET -11.289948 0.000000 0.000000
		CHANNELS 6 Xposition Yposition Zposition Zrotation Yrotation Xrotation
		JOINT RightLeg
		{
			OFFSET 0.000000 0.000000 -38.200329
			CHANNELS 6 Xposition Yposition Zposition Zrotation Yrotation Xrotation
			JOINT RightFoot
			{
				OFFSET 0.000000 0.000000 -39.900856
				CHANNELS 6 Xposition Yposition Zposition Zrotation Yrotation Xrotation
				JOINT RightToeBase
				{
					OFFSET 0.000000 -15.261658 0.000001
					CHANNELS 6 Xposition Yposition Zposition Zrotation Yrotation Xrotation
					JOINT RightToeBaseEnd
					{
						OFFSET 0.000000 -7.370728 0.000000
						CHANNELS 6 Xposition Yposition Zposition Zrotation Yrotation Xrotation
						End Site
						{
							OFFSET 0.000000 0.000000 0.100000
						}
					}
				}
				JOINT RightLegEnd
				{
					OFFSET 0.000000 0.000000 0.000000
					CHANNELS 6 Xposition Yposition Zposition Zrotation Yrotation Xrotation
					End Site
					{
						OFFSET 0.000000 0.000000 0.100000
					}
				}
			}
			JOINT RightUpLegEnd
			{
				OFFSET 0.000000 0.000000 0.000000
				CHANNELS 6 Xposition Yposition Zposition Zrotation Yrotation Xrotation
				End Site
				{
					OFFSET 0.000000 0.000000 0.099998
				}
			}
		}
	}
	JOINT LeftUpLeg
	{
		OFFSET 11.315674 0.000000 0.000000
		CHANNELS 6 Xposition Yposition Zposition Zrotation Yrotation Xrotation
		JOINT LeftLeg
		{
			OFFSET 0.000000 0.000000 -38.200329
			CHANNELS 6 Xposition Yposition Zposition Zrotation Yrotation Xrotation
			JOINT LeftFoot
			{
				OFFSET 0.000000 0.000000 -39.900856
				CHANNELS 6 Xposition Yposition Zposition Zrotation Yrotation Xrotation
				JOINT LeftToeBase
				{
					OFFSET 0.000000 -15.261658 0.000001
					CHANNELS 6 Xposition Yposition Zposition Zrotation Yrotation Xrotation
					JOINT LeftToeBaseEnd
					{
						OFFSET 0.000000 -7.539978 0.000000
						CHANNELS 6 Xposition Yposition Zposition Zrotation Yrotation Xrotation
						End Site
						{
							OFFSET 0.000000 0.000000 0.100000
						}
					}
				}
				JOINT LeftLegEnd
				{
					OFFSET 0.000000 0.000000 0.000000
					CHANNELS 6 Xposition Yposition Zposition Zrotation Yrotation Xrotation
					End Site
					{
						OFFSET 0.000000 0.000000 0.100000
					}
				}
			}
			JOINT LeftUpLegEnd
			{
				OFFSET 0.000000 0.000000 0.000000
				CHANNELS 6 Xposition Yposition Zposition Zrotation Yrotation Xrotation
				End Site
				{
					OFFSET 0.000000 0.000000 0.099998
				}
			}
		}
	}
}
MOTION
Frames: 2
Frame Time: 0.016667
20.204620 -16.150513 86.907928 -5.661604 -3.067944 -21.130341 0.000003 2.080048 8.814238 0.238840 1.032360 11.459632 -0.000005 -0.000002 8.844133 0.175110 1.018552 3.778104 0.000012 0.000023 11.682259 0.642071 3.909953 18.179885 0.000006 0.000029 11.746693 -0.422982 2.131646 5.657522 -0.000014 0.000004 17.658279 0.061119 -4.617476 11.945839 -0.000015 -0.000012 5.101499 1.345945 -1.348284 -1.295629 0.000006 -0.000003 5.101533 -0.214804 -1.377208 -21.757014 0.000004 0.000001 11.655090 -0.000000 -0.000000 -0.000000 -2.625374 -0.000010 11.175252 15.042008 -97.580720 0.640702 0.000084 -0.000011 10.434669 -62.940835 -9.213093 61.291454 0.000023 -0.000013 29.628387 72.094190 2.493378 16.260350 -0.000065 -0.000027 22.857590 55.944112 -20.072123 -5.864134 -2.867302 -2.944244 3.959579 32.085193 -24.853518 40.766930 -0.000008 0.000000 3.350388 -29.540657 10.932534 -50.103071 0.000000 -0.000015 3.756508 -19.561682 10.439680 -34.156943 0.000002 -0.000006 3.147347 0.000001 0.000001 -0.000000 -0.086746 -2.345276 10.030926 -56.792709 -68.029599 51.858136 0.000004 0.000013 4.061081 -4.979651 -53.340817 10.884567 0.000008 0.000027 3.248878 -5.479634 -53.340902 10.884563 -0.000025 -0.000014 2.639708 0.000001 -0.000000 -0.000001 0.104071 -0.006760 9.502937 -38.435506 -68.659035 38.766829 -0.000011 -0.000027 4.568722 -1.297278 -51.259316 3.745219 0.000035 -0.000019 3.654978 -1.797308 -51.259333 3.745274 -0.000010 -0.000025 2.741234 -0.000004 0.000002 0.000001 0.086769 2.267452 8.921711 -17.736813 -72.944665 25.900224 0.000027 -0.000016 4.061077 1.083985 -51.141854 -4.353664 0.000000 -0.000022 3.655003 2.084000 -51.141885 -4.353694 -0.000007 -0.000016 2.741230 0.000002 0.000000 0.000001 -0.173500 4.467194 7.976982 9.447764 -71.976001 11.522685 0.000008 -0.000005 3.350380 3.066489 -46.412918 -11.783344 0.000008 0.000006 2.842735 5.066513 -46.412959 -11.783368 -0.000015 -0.000004 2.639682 0.000002 0.000000 -0.000002 0.000015 0.000005 0.000013 -0.000001 0.000001 -0.000000 -0.000015 -0.000004 0.000008 0.000001 -0.000001 -0.000002 2.625385 -0.000021 11.175220 -11.054107 95.441703 -0.583275 0.000029 -0.000023 10.813606 7.825583 54.664507 8.467491 0.000015 0.000008 28.724768 -21.613012 2.954834 39.884343 0.644291 0.328913 25.716206 -66.208254 5.603415 -9.334451 2.867309 -2.944260 3.959625 -32.995274 27.956920 36.610992 0.000023 -0.000015 3.350410 36.139101 -9.737601 -60.735231 -0.000008 -0.000015 3.756508 24.193239 -11.009471 -41.576024 -0.000010 0.000012 3.100012 -0.000001 0.000001 -0.000001 0.086782 -2.345288 10.030897 -38.505782 93.007909 -56.271791 0.000004 -0.000013 4.061119 -10.851565 65.190406 -17.679040 0.000031 0.000010 3.248901 -11.352656 65.190379 -17.680259 -0.000019 -0.000013 2.639750 0.000001 -0.000000 0.000000 -0.104095 -0.006771 9.502969 92.419030 83.429839 81.435410 -0.000015 -0.000008 4.568733 -3.229907 63.501150 -6.033761 0.000015 0.000019 3.654978 -3.739185 63.500965 -6.039053 0.000002 -0.000005 2.741259 0.000001 -0.000001 -0.000001 -0.086761 2.267436 8.921726 -72.408195 105.191252 -74.450148 0.000004 -0.000012 4.061081 4.081802 65.849635 7.839692 -0.000002 0.000030 3.654987 5.081438 65.849635 7.845859 -0.000043 0.000012 2.741253 -0.000002 -0.000000 -0.000001 0.173500 4.467216 7.976997 89.561853 67.314690 102.416214 0.000008 -0.000019 3.350388 11.608424 62.727795 22.151284 0.000031 0.000027 2.842758 13.608414 62.727774 22.150457 0.000003 0.000021 2.639718 -0.000003 -0.000000 0.000000 0.000004 0.000014 0.000027 -0.000000 -0.000003 -0.000000 0.000006 0.000020 0.000006 -0.000002 0.000000 -0.000000 -11.289934 0.000002 0.000008 -6.158585 21.181402 6.644621 0.000000 -0.000006 -38.200294 -0.707008 0.321224 24.427680 0.000005 0.000038 -39.900841 -23.763220 -4.073071 28.220482 0.000007 -15.261640 -0.000003 0.184231 1.985202 -18.379645 0.000036 -7.370749 -0.000000 -0.000005 -0.000001 -0.000001 0.000017 0.000122 -0.000000 0.000000 -0.000001 -0.000002 0.000055 0.000073 -0.000001 -0.000002 -0.000001 -0.000000 11.315643 -0.000006 -0.000023 1.143413 6.235945 15.681713 -0.000056 0.000011 -38.200306 -0.134097 0.040934 16.975088 -0.000015 0.000024 -39.900845 21.254377 -2.369712 11.636569 -0.000040 -15.261707 0.000017 -0.738652 -0.034749 -18.127652 -0.000042 -7.539990 0.000001 0.000002 0.000000 -0.000000 0.000002 0.000122 0.000000 0.000000 -0.000001 0.000003 -0.000034 0.000060 0.000001 0.000000 0.000000 -0.000000 
20.332672 -16.160583 86.911209 -5.873668 -3.010020 -21.154942 0.000004 2.080064 8.814240 0.239408 1.037025 11.481077 -0.000013 -0.000020 8.844143 0.192824 1.075513 3.855714 0.000004 0.000020 11.682253 0.655586 3.952592 17.944345 -0.000007 0.000008 11.746707 -0.412136 2.130870 5.655821 0.000000 0.000005 17.658268 0.033629 -4.738450 11.970962 -0.000012 -0.000026 5.101508 1.405745 -1.384392 -1.202609 0.000014 -0.000003 5.101471 -0.201270 -1.381221 -21.658339 0.000010 0.000000 11.655066 -0.000000 0.000000 -0.000001 -2.625374 0.000028 11.175217 15.073210 -97.570311 0.693666 0.000061 0.000031 10.434700 -56.957651 -18.956085 60.505695 -0.000004 -0.000006 29.628422 61.445345 3.851111 14.487784 -0.000031 0.000050 22.857582 55.217548 -21.618242 -6.274669 -2.867306 -2.944290 3.959595 32.175723 -25.238929 40.247890 -0.000008 -0.000015 3.350403 -30.377434 10.849199 -51.440627 -0.000015 0.000008 3.756523 -20.135469 10.543046 -35.080589 -0.000010 0.000002 3.147326 0.000000 -0.000000 -0.000000 -0.086754 -2.345261 10.030891 -62.516599 -69.244328 57.535342 0.000004 -0.000008 4.061089 -5.541534 -54.997448 11.577551 -0.000008 -0.000013 3.248856 -6.041538 -54.997400 11.577539 0.000006 -0.000003 2.639705 0.000001 0.000001 0.000001 0.104076 -0.006771 9.502941 -42.980560 -70.448654 43.325717 -0.000010 0.000026 4.568712 -1.481642 -52.936702 3.978856 -0.000004 -0.000007 3.654968 -1.981625 -52.936708 3.978828 0.000007 -0.000016 2.741242 -0.000000 0.000001 0.000001 0.086769 2.267445 8.921700 -21.201795 -75.359151 29.240863 0.000013 0.000001 4.061085 1.314249 -52.941609 -4.645687 -0.000023 -0.000005 3.654982 2.314230 -52.941599 -4.645664 0.000006 -0.000021 2.741238 0.000003 -0.000002 -0.000003 -0.173523 4.467283 7.976978 10.451519 -74.611928 10.255655 0.000019 0.000000 3.350403 3.633585 -48.196113 -12.554831 0.000008 0.000025 2.842766 5.633667 -48.196427 -12.554943 -0.000005 -0.000025 2.639719 0.000003 0.000000 -0.000001 0.000023 -0.000008 0.000013 0.000000 0.000001 -0.000001 -0.000000 0.000009 -0.000013 -0.000001 0.000003 0.000000 2.625393 0.000002 11.175232 -11.110785 95.217338 -0.584726 0.000030 0.000020 10.813637 7.677011 54.760768 8.122718 0.000084 -0.000053 28.724783 -20.956398 2.691016 40.154668 0.644291 0.328954 25.716152 -65.502102 5.550827 -9.291666 2.867329 -2.944275 3.959610 -32.995274 27.956914 36.610989 -0.000008 0.000015 3.350403 36.139081 -9.737592 -60.735244 0.000000 -0.000015 3.756493 24.193223 -11.009474 -41.576014 0.000008 -0.000009 3.100003 0.000001 0.000002 -0.000001 0.086735 -2.345286 10.030878 -37.249823 93.092323 -54.968290 0.000027 -0.000002 4.061119 -10.873226 65.258284 -17.702621 0.000008 0.000008 3.248894 -11.376003 65.258182 -17.705693 0.000010 -0.000001 2.639721 -0.000001 0.000000 -0.000002 -0.104069 -0.006771 9.502919 93.177004 83.427421 82.063685 0.000031 0.000030 4.568743 -3.241447 63.566692 -6.044382 0.000034 -0.000026 3.654985 -3.750336 63.566453 -6.050522 0.000007 0.000005 2.741252 -0.000000 0.000000 0.000002 -0.086729 2.267432 8.921703 -72.147247 105.212391 -74.407610 0.000004 0.000001 4.061090 4.094227 65.887659 7.855650 -0.000004 -0.000018 3.654991 5.105367 65.887324 7.869259 -0.000010 -0.000018 2.741249 0.000002 0.000000 0.000001 0.173522 4.467190 7.976973 89.801859 67.308789 102.526392 0.000031 0.000000 3.350410 11.645712 62.769671 22.193211 0.000023 -0.000008 2.842751 13.645667 62.769664 22.193170 0.000007 -0.000011 2.639714 0.000001 -0.000000 -0.000001 -0.000003 -0.000023 -0.000011 0.000003 0.000000 -0.000000 0.000004 0.000019 -0.000013 -0.000001 0.000000 0.000001 -11.289881 0.000013 -0.000004 -6.120944 21.187723 6.652920 0.000030 0.000085 -38.200329 -0.722058 0.325485 24.263323 -0.000012 0.000046 -39.900852 -23.575142 -4.007038 28.479724 0.000035 -15.261662 -0.000006 0.215010 1.901734 -18.405401 0.000044 -7.370764 0.000001 -0.000003 0.000001 -0.000000 0.000017 0.000119 -0.000004 0.000000 -0.000001 -0.000000 0.000032 0.000076 0.000000 -0.000002 -0.000000 0.000001 11.315655 0.000000 -0.000004 1.178401 6.270395 15.730843 -0.000017 -0.000031 -38.200317 -0.150658 0.045724 16.965707 -0.000004 -0.000008 -39.900856 21.460799 -2.423397 11.600270 0.000011 -15.261725 0.000012 -0.717219 -0.039691 -18.120417 -0.000001 -7.540052 0.000002 0.000002 0.000000 -0.000000 0.000010 0.000006 -0.000000 -0.000001 -0.000000 0.000002 -0.000008 0.000066 -0.000001 -0.000001 0.000000 -0.000001 
